# xmcd CD database file
#
# Track frame offsets:
#	150
#	31557
#	74357
#	106994
#	148889
#	155895
#	184213
#	217867
#	243452
#	278368
#	309702
#
# Disc length: 4766 seconds
#
# Revision: 0
# Processed by: cddbd v1.5PL3 Copyright (c) Steve Scherf et al.
# Submitted via: CDex 1.51
#
DISCID=9b129c0b
DTITLE=Theo Parrish - Natural Aspirations
DYEAR=2004
DGENRE=House
TTITLE0=Mess I Made
TTITLE1=Naturally
TTITLE2=Takem Me
TTITLE3=The Stomp
TTITLE4=Kings Dance
TTITLE5=Split Me Open
TTITLE6=The Rust Organic
TTITLE7=Ascension
TTITLE8=Illumination
TTITLE9=Orchetra Hall
TTITLE10=Melt
EXTD=YEAR: 2004
EXTT0=
EXTT1=
EXTT2=
EXTT3=
EXTT4=
EXTT5=
EXTT6=
EXTT7=
EXTT8=
EXTT9=
EXTT10=
PLAYORDER=
